<svg id="Слой_1" data-name="Слой 1" xmlns="http://www.w3.org/2000/svg" viewBox="0 0 786.4 175.4"><defs><style>.cls-1{fill:#0072ba;fill-rule:evenodd;}</style></defs><title>LOGO Blue tolshe</title><path class="cls-1" d="M-558.1,8.1a10.1,10.1,0,0,1,2.6-1.6c5.5-3.1,13.1.3,12.6,7.8s-5,10.5-6.7,17.3-1.8,14.3.4,20.6,5,11.1,10,17a62.4,62.4,0,0,0,9,8.5c10,7.9,22.6,9.4,37.9,9.4,0-3.1-18.9-33.1-22.1-38.4-7.9-12.7-15.3-25.8-22.7-38.5s-4.2-32.1-14.7-45.8c-16.3-21-49.5-13.7-55.3,11.6-1.6,6.3-2.1,17.7-1,29.5s6.8,30,15.5,44.2a202.5,202.5,0,0,0,25,32.7c4.2,4.5,13.6,14.4,6.6,19.9-4.1,3.3-12.3,2.7-18.1-2.1S-600.2,78.8-610.2,61s-18-38.9-18.5-61.9,1.1-37.3,15.4-52c9-9.4,23.3-15.5,36.1-15.8a52.9,52.9,0,0,1,34.9,12.2c8.7,7.4,13,17.1,15.2,25s2.5,18.7,5.2,26.4c1.1,3.3.5,3.4,6.8,13.5,17,27.4,40.1,65.7,54.2,93.9-1.9,2-17.4,3.4-20.7,3.9-38.3,3.2-65.2-8.4-83.3-42.3-8.2-14.9-6.5-43.6,6.8-55.8Zm-18.5-1.9c2.7-1.4,20.6-19,21.8-21.3a11.9,11.9,0,0,0,.7-7c-1.2-5.1-6.1-8.7-11.4-6.1-2.6,2.1-7.4,7.4-11,10-3.2-1-8.5-7.9-11.6-10-5.1-2.5-9.7.7-11.1,5.5a11.8,11.8,0,0,0,.3,7.6C-597.8-12.1-578.1,5.7-576.6,6.2Z" transform="translate(628.8 68.7)"/><path class="cls-1" d="M-312,59.5a11.7,11.7,0,0,1-3.5,8.8,13.4,13.4,0,0,1-9.6,3.8,13.3,13.3,0,0,1-9.5-3.5,11.3,11.3,0,0,1-3.7-8.5l-.5-56.2-17,41.1c-3.3,7.9-8.3,11.9-15.2,11.9s-12-4-15.3-11.9L-403.2,4.1l-.2,56a11.2,11.2,0,0,1-3.8,8.5,13.1,13.1,0,0,1-9.5,3.5,13.4,13.4,0,0,1-9.6-3.8,11.1,11.1,0,0,1-3.6-8.8l2.6-72.1a27,27,0,0,1,1.2-6.8,29.9,29.9,0,0,1,3.3-6.4,17.1,17.1,0,0,1,5.9-5,20.1,20.1,0,0,1,8.6-1.9c8.3,0,14.6,4.8,18.9,14.3L-371,22.8l19-41c4.5-9.7,11-14.5,19.4-14.5q8.3,0,12.9,5.7a23.4,23.4,0,0,1,5,14.4Z" transform="translate(628.8 68.7)"/><path class="cls-1" d="M-220.4-32.7a12.5,12.5,0,0,1,9.7,3.9,13.9,13.9,0,0,1,3.5,9.5,15.3,15.3,0,0,1-1.3,6.4l-32.2,73.7c-1.8,4-3.7,6.9-5.8,8.6a12.4,12.4,0,0,1-8.3,2.7,11.6,11.6,0,0,1-8-2.7c-2.1-1.7-4-4.6-5.7-8.6l-31.9-72.7a19,19,0,0,1-1.6-7.7,13.3,13.3,0,0,1,3.5-9.4c2.4-2.5,5.7-3.7,10-3.7a13.8,13.8,0,0,1,7.8,2.4,13.3,13.3,0,0,1,5.2,6.8l20.9,58.7,20.8-58.4a14.4,14.4,0,0,1,5.3-7.1A14.5,14.5,0,0,1-220.4-32.7Z" transform="translate(628.8 68.7)"/><path class="cls-1" d="M-151.5,72.1c-10.5,0-19.7-2.2-27.4-6.5a44.2,44.2,0,0,1-17.7-18.4c-4-7.8-6-17-6-27.5s2-19.6,6-27.5a44.2,44.2,0,0,1,17.7-18.4c7.7-4.3,16.9-6.5,27.4-6.5,15.9,0,28.4,4.8,37.5,14.2s13.5,22.3,13.5,38.2S-105,48.3-114,57.9s-21.6,14.2-37.5,14.2Zm0-23.3c8,0,14.1-2.7,18.2-7.9s6.2-12.4,6.2-21.2-2.1-15.8-6.2-21.1-10.2-8-18.1-8-14,2.7-18.2,8-6.2,12.3-6.2,21.2,2,15.9,6.1,21.1S-159.5,48.8-151.5,48.8Z" transform="translate(628.8 68.7)"/><path class="cls-1" d="M-30.2-31.2a10.2,10.2,0,0,1,7.7,3.1,11,11,0,0,1,3.1,8.2,11.2,11.2,0,0,1-3.1,8.3,10,10,0,0,1-7.7,3.3H-46.5V60.1a11.4,11.4,0,0,1-3.6,8.5,13,13,0,0,1-9.4,3.5,13.7,13.7,0,0,1-9.6-3.5,11.4,11.4,0,0,1-3.8-8.5V-8.3H-89.1a10.1,10.1,0,0,1-7.8-3.3,11.2,11.2,0,0,1-3.1-8.3,11,11,0,0,1,3.1-8.2,10.2,10.2,0,0,1,7.8-3.1Z" transform="translate(628.8 68.7)"/><path class="cls-1" d="M46.2,47.1A10.6,10.6,0,0,1,54,50.3a11.4,11.4,0,0,1,3.1,8.3A11.7,11.7,0,0,1,54,67.1a10.4,10.4,0,0,1-7.8,3.3H.2c-4.3,0-7.5-1.4-9.8-4.1s-3.3-6.5-3.3-11.7V-15.5c0-4.8,1.2-8.6,3.7-11.3s6-4.2,10.6-4.4H46.2A10.6,10.6,0,0,1,54-28.1a11.4,11.4,0,0,1,3.1,8.3A11.7,11.7,0,0,1,54-11.3,10.4,10.4,0,0,1,46.2-8H13.1V8.5H41.4a9.8,9.8,0,0,1,7.2,2.9A10.2,10.2,0,0,1,51.4,19a10.6,10.6,0,0,1-2.8,7.7,9.5,9.5,0,0,1-7.2,3H13.1V47.1Z" transform="translate(628.8 68.7)"/><path class="cls-1" d="M140.4,34l13.8,20.3a10.2,10.2,0,0,1,2,5.8,11.3,11.3,0,0,1-3.9,8.5,13.7,13.7,0,0,1-9.4,3.5c-4.6,0-8-1.7-10.1-5.2L115.7,38.6H102.1V60.1a11.6,11.6,0,0,1-3.6,8.5A13.2,13.2,0,0,1,89,72.1a13.7,13.7,0,0,1-9.6-3.5,11.7,11.7,0,0,1-3.7-8.5V-15.5c0-5.1,1.4-9,4.1-11.7s6.6-4,11.7-4h26.9q18.9,0,29.1,8.7c6.7,5.8,10,14.1,10,24.7a38.8,38.8,0,0,1-4.4,18.9A32.2,32.2,0,0,1,140.4,34ZM102.1-8.3v24h11.7c6,0,10.3-.9,13-2.7s4.1-4.7,4.1-8.8-1.2-7.2-3.7-9.3-6.5-3.2-12-3.2Z" transform="translate(628.8 68.7)"/></svg>