<svg width="212" height="47" viewBox="0 0 212 47" fill="none" xmlns="http://www.w3.org/2000/svg">
<path fill-rule="evenodd" clip-rule="evenodd" d="M19.8749 20.1486C20.0772 19.9748 20.3174 19.8383 20.5702 19.7266C22.0367 18.9198 24.0721 19.8011 23.9331 21.7746C23.794 23.7358 22.593 24.5301 22.1379 26.3051C21.6828 28.0801 21.6575 30.0536 22.239 31.7044C22.8205 33.3553 23.5791 34.6213 24.9065 36.1605C25.6271 36.9797 26.4362 37.7244 27.3085 38.3947C29.976 40.4675 33.3389 40.8647 37.435 40.8647C37.435 40.0579 32.3907 32.1885 31.531 30.7983C29.4198 27.4718 27.4476 24.0336 25.4628 20.7071C23.4779 17.3806 24.3629 12.2792 21.5563 8.69204C17.2074 3.18098 8.33256 5.09247 6.79021 11.7331C6.36037 13.3839 6.23395 16.3753 6.52472 19.4659C6.81549 22.5566 8.3452 27.3353 10.6587 31.059C12.5803 34.1373 14.818 37.0045 17.3338 39.6359C18.459 40.8151 20.9621 43.4093 19.0911 44.8491C17.9912 45.7179 15.8041 45.5566 14.2618 44.3029C12.7194 43.0493 8.62333 38.6926 5.95582 34.0255C3.28831 29.3585 1.15178 23.8226 1.01271 17.7903C0.873649 11.7579 1.31613 8.00936 5.13408 4.14914C7.5361 1.67909 11.3541 0.0903123 14.7801 0.00342615C18.1809 -0.0710477 21.4931 1.07088 24.0974 3.2058C26.4236 5.14212 27.574 7.68664 28.1556 9.7595C28.7371 11.8324 28.8256 14.6624 29.5462 16.6856C29.837 17.5544 29.6853 17.5792 31.3667 20.2231C35.9053 27.4098 42.0747 37.4513 45.842 44.8491C45.3363 45.3704 41.1897 45.7428 40.3174 45.8669C30.0898 46.7109 22.909 43.6699 18.0671 34.7703C15.8673 30.8728 16.3224 23.3386 19.8749 20.1486ZM14.9318 19.6521C15.6524 19.2797 20.4312 14.6748 20.7599 14.0666C21.0127 13.4832 21.0759 12.8502 20.9495 12.2295C20.6334 10.889 19.3187 9.94568 17.9027 10.6284C17.2074 11.1745 15.9305 12.5647 14.9697 13.2474C14.1101 12.9867 12.6941 11.1745 11.8597 10.6284C10.507 9.9705 9.26809 10.8145 8.90146 12.0682C8.69919 12.726 8.73711 13.4211 8.97731 14.0666C9.26809 14.8485 14.5399 19.5156 14.9318 19.6521Z" fill="#1476BB"/>
<path fill-rule="evenodd" clip-rule="evenodd" d="M85.602 33.6284C85.6399 34.4972 85.2986 35.3289 84.6665 35.9371C83.9838 36.5949 83.0609 36.9549 82.1001 36.9301C81.1646 36.9673 80.2544 36.6322 79.559 36.0115C78.9143 35.4406 78.5603 34.6338 78.5729 33.7773L78.4339 19.0439L73.8953 29.8178C73.0104 31.8907 71.6829 32.9333 69.8372 32.9333C67.9914 32.9333 66.626 31.8782 65.7537 29.8178L61.2405 19.0936L61.1899 33.7773C61.2025 34.6338 60.8233 35.4406 60.1785 36.0115C59.4958 36.6446 58.5729 36.9673 57.6374 36.9301C56.6766 36.9425 55.7537 36.5825 55.071 35.9371C54.4137 35.3537 54.0597 34.4972 54.1102 33.6284L54.8056 14.7244C54.8308 14.1162 54.9446 13.5205 55.1216 12.9371C55.3492 12.3413 55.6399 11.7827 56.0066 11.2614C56.4238 10.7153 56.9674 10.2684 57.5868 9.94571C58.3075 9.61058 59.0913 9.44922 59.8877 9.44922C62.1001 9.44922 63.7815 10.7029 64.932 13.1977L69.8498 23.9964L74.9193 13.2474C76.1204 10.7029 77.8523 9.44922 80.1027 9.44922C81.5818 9.44922 82.7322 9.94571 83.554 10.9387C84.4137 12.0186 84.8814 13.3467 84.8941 14.712L85.602 33.6284Z" fill="#1476BB"/>
<path fill-rule="evenodd" clip-rule="evenodd" d="M110.065 9.44942C111.038 9.39978 111.986 9.77214 112.656 10.4672C113.276 11.1499 113.604 12.0436 113.592 12.9621C113.604 13.5455 113.478 14.1165 113.25 14.6378L104.654 33.9637C104.173 35.0188 103.668 35.7759 103.099 36.2228C102.467 36.7193 101.683 36.9675 100.886 36.9303C100.103 36.9675 99.344 36.7193 98.7498 36.2228C98.1936 35.7759 97.6752 35.0188 97.2328 33.9637L88.6993 14.8984C88.4211 14.2654 88.2694 13.5703 88.2694 12.8752C88.2441 11.9691 88.5728 11.0754 89.2049 10.4052C89.8497 9.74732 90.722 9.43701 91.8725 9.43701C92.6183 9.43701 93.339 9.66043 93.9584 10.07C94.6032 10.4921 95.0962 11.1251 95.3491 11.8574L100.937 27.2487L106.487 11.9319C106.752 11.1747 107.245 10.5293 107.903 10.07C108.548 9.66043 109.306 9.43701 110.065 9.44942Z" fill="#1476BB"/>
<path fill-rule="evenodd" clip-rule="evenodd" d="M128.472 36.9301C125.665 36.9301 123.213 36.3591 121.152 35.2296C119.129 34.1125 117.486 32.4368 116.424 30.4012C115.349 28.3532 114.818 25.9452 114.818 23.1896C114.818 20.4341 115.349 18.0509 116.424 15.9781C117.486 13.9425 119.129 12.2668 121.152 11.1497C123.213 10.0202 125.665 9.44922 128.472 9.44922C132.72 9.44922 136.057 10.7029 138.485 13.1729C140.912 15.643 142.088 19.0191 142.088 23.1896C142.088 27.3602 140.887 30.6867 138.485 33.2064C136.083 35.7261 132.72 36.9301 128.472 36.9301ZM128.472 30.8232C130.608 30.8232 132.239 30.1157 133.327 28.7503C134.426 27.385 134.983 25.4983 134.983 23.1896C134.983 20.8809 134.426 19.0439 133.327 17.6538C132.227 16.2636 130.608 15.5561 128.497 15.5561C126.386 15.5561 124.755 16.2636 123.643 17.6538C122.517 19.0439 121.986 20.8809 121.986 23.2145C121.986 25.548 122.517 27.385 123.617 28.7503C124.705 30.1157 126.335 30.8232 128.472 30.8232Z" fill="#1476BB"/>
<path fill-rule="evenodd" clip-rule="evenodd" d="M160.874 9.83396C161.645 9.80913 162.391 10.107 162.935 10.6408C163.504 11.2117 163.807 11.9937 163.756 12.7881C163.794 13.5949 163.504 14.3769 162.935 14.9602C162.416 15.5312 161.658 15.8415 160.874 15.8291H156.525V33.7649C156.538 34.6089 156.184 35.4157 155.564 35.9991C154.882 36.6197 153.984 36.9548 153.048 36.9176C152.1 36.9424 151.19 36.6197 150.482 35.9991C149.837 35.4281 149.471 34.6213 149.471 33.7649V15.8415H145.147C144.363 15.8663 143.592 15.556 143.061 14.9727C142.492 14.3893 142.189 13.6073 142.239 12.8005C142.201 12.0061 142.505 11.2241 143.061 10.6532C143.605 10.107 144.363 9.80913 145.147 9.84637L160.874 9.83396Z" fill="#1476BB"/>
<path fill-rule="evenodd" clip-rule="evenodd" d="M181.278 30.3763C182.062 30.3639 182.821 30.6618 183.364 31.2204C183.933 31.8037 184.224 32.5857 184.186 33.3925C184.224 34.2117 183.933 35.0185 183.364 35.6267C182.821 36.1977 182.075 36.508 181.278 36.4956H168.99C167.84 36.4956 166.993 36.1232 166.373 35.4157C165.754 34.7082 165.488 33.7152 165.488 32.3499V13.9548C165.488 12.7012 165.804 11.6958 166.474 10.9883C167.144 10.2808 168.08 9.88361 169.306 9.83396H181.266C182.05 9.80913 182.795 10.107 183.352 10.6408C183.921 11.2241 184.211 12.0061 184.173 12.8129C184.211 13.6321 183.921 14.4389 183.352 15.0471C182.808 15.6181 182.062 15.9284 181.266 15.916H172.429V20.2479H179.989C180.71 20.2355 181.405 20.5085 181.911 21.005C182.429 21.5388 182.694 22.2587 182.656 23.0034C182.694 23.7481 182.429 24.4805 181.911 25.0266C181.417 25.5479 180.71 25.8334 179.989 25.8086H172.429V30.3763H181.278Z" fill="#1476BB"/>
<path fill-rule="evenodd" clip-rule="evenodd" d="M206.436 26.9381L210.128 32.263C210.457 32.7099 210.646 33.2312 210.659 33.7897C210.659 34.6462 210.28 35.453 209.622 36.0239C208.939 36.6321 208.042 36.9549 207.106 36.9425C205.88 36.9425 204.97 36.4956 204.414 35.5771L199.85 28.1545H196.221V33.7897C196.234 34.6338 195.88 35.4406 195.261 36.0239C194.578 36.6446 193.655 36.9797 192.719 36.9425C191.771 36.9673 190.861 36.6446 190.153 36.0239C189.521 35.4406 189.167 34.6338 189.167 33.7897V13.9549C189.167 12.6143 189.546 11.5965 190.267 10.889C190.987 10.1815 192.024 9.83398 193.389 9.83398H200.57C203.933 9.83398 206.525 10.5911 208.345 12.1178C210.14 13.6446 211.013 15.8167 211.013 18.5971C211.051 20.3224 210.646 22.0229 209.837 23.5496C209.053 24.977 207.878 26.1562 206.436 26.9381ZM196.209 15.8415V22.1346H199.331C200.937 22.1346 202.087 21.8987 202.808 21.4271C203.529 20.9554 203.908 20.1983 203.908 19.1184C203.908 18.0385 203.592 17.2317 202.922 16.6856C202.252 16.1394 201.19 15.8415 199.711 15.8415H196.209Z" fill="#1476BB"/>
</svg>
